# xmcd
#
# Track frame offsets:
#	150
#	14891
#	26238
#	41290
#	59642
#	75577
#	92664
#	104132
#	119103
#	128093
#	144437
#	156969
#
# Disc length: 2326 seconds
#
# Revision: 0
# Processed by: cddbd v1.5.2PL0 Copyright (c) Steve Scherf et al.
# Submitted via: audiograbber 1.83.01
#
DISCID=ad09140c
DTITLE=Atta - I just love to say I called you
DYEAR=2008
DGENRE=Rock
TTITLE0=Great new song of power and success
TTITLE1=Sunshine
TTITLE2=Get Me There
TTITLE3=Panties
TTITLE4=Access Denied
TTITLE5=CPR
TTITLE6=250 Boys/minute
TTITLE7=Pretty Little Notes
TTITLE8=Jerk
TTITLE9=Karaoke Night
TTITLE10=Sneak A Peek
TTITLE11=Love Song
EXTD=
EXTT0=
EXTT1=
EXTT2=
EXTT3=
EXTT4=
EXTT5=
EXTT6=
EXTT7=
EXTT8=
EXTT9=
EXTT10=
EXTT11=
PLAYORDER=
